<svg width="175" height="166" viewBox="0 0 175 166" fill="none" xmlns="http://www.w3.org/2000/svg">
<rect x="80.1724" y="30.9236" width="13.8406" height="134.6" rx="6.92032" fill="white"/>
<rect width="13.8406" height="132.094" rx="6.92032" transform="matrix(-1 0 0 1 73.9698 15.7471)" fill="white"/>
<rect x="100.215" y="15.7471" width="13.8406" height="132.094" rx="6.92032" fill="white"/>
<rect width="13.8406" height="128.08" rx="6.92032" transform="matrix(-1 0 0 1 53.9269 0)" fill="white"/>
<rect x="120.258" width="13.8406" height="128.08" rx="6.92032" fill="white"/>
<rect width="13.8406" height="106.288" rx="6.92032" transform="matrix(-1 0 0 1 33.8839 0)" fill="white"/>
<rect x="140.301" width="13.8406" height="106.288" rx="6.92032" fill="white"/>
<rect width="13.8406" height="63.0462" rx="6.92032" transform="matrix(-1 0 0 1 13.8406 12.2572)" fill="white"/>
<rect x="160.345" y="12.2572" width="13.8406" height="63.0462" rx="6.92032" fill="white"/>
</svg>
